# xmcd
#
# Track frame offsets: 
#        150
#        11996
#        27645
#        43762
#        57383
#        73809
#        86476
#        105171
#        119025
#        134667
#        152994
#        169791
#        184167
#        199637
#        213701
#        226674
#        246992
#        263439
#        278471
#        292563
#        310706
#        322780
#
# Disc length: 4700 seconds
#
# Revision: 0
# Processed by: cddbd v1.5.2PL0 Copyright (c) Steve Scherf et al.
# Submitted via: ExactAudioCopyFreeDBPlugin 1.0
#
DISCID=38125a16
DTITLE=Anna German - Z archiwum Polskiego Radia Anna German
DYEAR=2013
DGENRE=
TTITLE0=Człowieczy los
TTITLE1=Kupiłabym ci me kochanie
TTITLE2=Weź minie jak kota w worku
TTITLE3=Jedna chwila wystarczyła
TTITLE4=Uśmiech Mony Lisy
TTITLE5=Sanna
TTITLE6=Chcę tańczyć w majową moc
TTITLE7=Coś mi się wydaje
TTITLE8=Byle tylko ze mną
TTITLE9=Czekasz mnie mamo
TTITLE10=Gdzieś, gdzie nie wiem
TTITLE11=Pozwól żeby ktoś wziął Twoje serce
TTITLE12=Za górą, za chmurą
TTITLE13=Piosenki przy wtórze gitary
TTITLE14=Świat jest ten sam
TTITLE15=Gdziekolwiek znajdziesz się
TTITLE16=Kto uwierzyłby w śnieg
TTITLE17=A jeżeli złotem jest milczenie
TTITLE18=Pomimo lat pogardy
TTITLE19=Temat
TTITLE20=Stare zwrotki
TTITLE21=Uspokojenie
EXTD=
EXTT0=
EXTT1=
EXTT2=
EXTT3=
EXTT4=
EXTT5=
EXTT6=
EXTT7=
EXTT8=
EXTT9=
EXTT10=
EXTT11=
EXTT12=
EXTT13=
EXTT14=
EXTT15=
EXTT16=
EXTT17=
EXTT18=
EXTT19=
EXTT20=
EXTT21=
PLAYORDER=
